{"title":"The Thin Red Line (La Sottile Linea Rossa) 1998 ITALIAN (Eng-sub","uid":5781930,"size":1213308086,"categoryP":"video","categoryS":"movies","magnet":"?xt=urn:btih:585c5324c9f4f4f5b354656f2cc20528f691ea81&amp;dn=The+Thin+Red+Line+%28La+Sottile+Linea+Rossa%29+1998+ITALIAN+%28Eng-sub&amp;tr=udp%3A%2F%2Ftracker.openbittorrent.com%3A80&amp;tr=udp%3A%2F%2Fopen.demonii.com%3A1337&amp;tr=udp%3A%2F%2Ftracker.coppersurfer.tk%3A6969&amp;tr=udp%3A%2F%2Fexodus.desync.com%3A6969","seeders":0,"leechers":0,"uploader":"LKRG","files":-1,"time":1282447697,"description":" &lt;a href=&quot;http://host.presenze.com/immagini/082010/20100817113824encoded-by-ivosorojpg.jpg&quot; rel=&quot;nofollow&quot; target=&quot;_NEW&quot;&gt;http://host.presenze.com/immagini/082010/20100817113824encoded-by-ivosorojpg.jpg&lt;/a&gt;\n\nThe Thin Red Line (La Sottile Linea Rossa) 1998 ITALIAN (Eng-sub) {DivX} - LKRG\n\nIn World War II, the outcome of the battle of Guadalcanal will strongly influence the Japanese's advance into the pacific. A group of young soldiers is brought in as a relief for the battle-weary Marine units. The exhausting fight for a key-positioned airfield that allows control over a 1000-mile radius puts the men of the Army Rifle company C-for-Charlie through hell. The horrors of war forms the soldiers into a tight-knit group, their emotions develop into bonds of love and even family. The reasons for this war get further away as the world for the men gets smaller and smaller until their fighting is for mere survival and the life of the other men with them.\nDirector: Terrence Malick\nCASTING\n\nKirk Acevedo ... Pvt. Tella\nSean Penn ... 1st Sgt. Welsh\nPenelope Allen ... Witt's Mother (as Penny Allen)\nAdrien Brody ... Cpl. Fife\nJames Caviezel ... Pvt. Witt (as Jim Caviezel)\nBenjamin Green ... Melanesian Villager (as Benjamin)\nSimon Billig ... Lt. Col. Billig\nBen Chaplin ... Pvt. Bell\nMark Boone Junior ... Pvt. Peale\nGeorge Clooney ... Capt. Bosche\nJohn Cusack ... Capt. Gaff\nNorman Patrick Brown ... Pvt. Henry\nWoody Harrelson ... Sgt. Keck\nElias Koteas ... Capt. Staros\nNick Nolte ... Lt. Col. Tall\n &lt;a href=&quot;\nhttp://host.presenze.com/immagini/082010/20100818025801the-thin-red-line-1jpg.jpg&quot; rel=&quot;nofollow&quot; target=&quot;_NEW&quot;&gt;\nhttp://host.presenze.com/immagini/082010/20100818025801the-thin-red-line-1jpg.jpg&lt;/a&gt;\n\n &lt;a href=&quot;\nhttp://host.presenze.com/immagini/082010/20100818030729the-thin-red-line-2jpg.jpg&quot; rel=&quot;nofollow&quot; target=&quot;_NEW&quot;&gt;\nhttp://host.presenze.com/immagini/082010/20100818030729the-thin-red-line-2jpg.jpg&lt;/a&gt; &lt;a href=&quot;\nhttp://host.presenze.com/immagini/082010/20100818030848the-thin-red-line-3jpg.jpg&quot; rel=&quot;nofollow&quot; target=&quot;_NEW&quot;&gt;\nhttp://host.presenze.com/immagini/082010/20100818030848the-thin-red-line-3jpg.jpg&lt;/a&gt;\n\nCast: Kirk Acevedo, Sean Penn, Adrien Brody, James Caviezel, Benjamin Green, Simon Billig, Ben Chaplin, Mark Boone Junior, George Clooney, John Cusack, Woody Harrelson, Elias Koteas, Nick Nolte.\nGenre: Action | Drama | War\nLanguage: Italian\nYear : 1998\nDuration : 2h 43mn\nVideo Bit rate : 851 Kbps\nWidth : 640 pixels\nHeight : 264 pixels\nDisplay aspect ratio : 2.40:1\nOpinion : stard.gifstard.gifstard.gifstard.gifstard.gif\nCodec : DivX\n\nscreenshots &lt;a href=&quot;\nhttp://host.presenze.com/immagini/082010/20100818031518the-thin-red-line-screenshotjpg.jpg&quot; rel=&quot;nofollow&quot; target=&quot;_NEW&quot;&gt;\nhttp://host.presenze.com/immagini/082010/20100818031518the-thin-red-line-screenshotjpg.jpg&lt;/a&gt; &lt;a href=&quot;\nhttp://host.presenze.com/immagini/082010/20100818031518the-thin-red-line-screenshotjpg.jpg&quot; rel=&quot;nofollow&quot; target=&quot;_NEW&quot;&gt;\nhttp://host.presenze.com/immagini/082010/20100818031518the-thin-red-line-screenshotjpg.jpg&lt;/a&gt; &lt;a href=&quot;\nhttp://host.presenze.com/immagini/082010/20100818031518the-thin-red-line-screenshotjpg.jpg&quot; rel=&quot;nofollow&quot; target=&quot;_NEW&quot;&gt;\nhttp://host.presenze.com/immagini/082010/20100818031518the-thin-red-line-screenshotjpg.jpg&lt;/a&gt; &lt;a href=&quot;\nhttp://host.presenze.com/immagini/082010/20100818031518the-thin-red-line-screenshotjpg.jpg&quot; rel=&quot;nofollow&quot; target=&quot;_NEW&quot;&gt;\nhttp://host.presenze.com/immagini/082010/20100818031518the-thin-red-line-screenshotjpg.jpg&lt;/a&gt; &lt;a href=&quot;\nhttp://host.presenze.com/immagini/082010/20100818031518the-thin-red-line-screenshotjpg.jpg&quot; rel=&quot;nofollow&quot; target=&quot;_NEW&quot;&gt;\nhttp://host.presenze.com/immagini/082010/20100818031518the-thin-red-line-screenshotjpg.jpg&lt;/a&gt;\n\nGeneral Complete name : The Thin Red Line 1998 - ITALIAN (La Sottile Linea Rossa).divx Format : AVI Format/Info : Audio Video Interleave File size : 1.13 GiB Duration : 2h 43mn Overall bit rate : 989 Kbps Video ID : 0 Format : MPEG-4 Visual Format settings, BVOP : No Format settings, QPel : No Format settings, GMC : No warppoints Format settings, Matrix : Default (H.263) Codec ID : DX50 Codec ID/Hint : DivX 5 Duration : 2h 43mn Bit rate : 851 Kbps Width : 640 pixels Height : 264 pixels Display aspect ratio : 2.40:1 Frame rate : 25.000 fps Resolution : 8 bits Colorimetry : 4:2:0 Scan type : Progressive Bits/(Pixel*Frame) : 0.201 Stream size : 996 MiB (86%) Title : Video Writing library : DivX 6.8.5 (UTC 2009-08-20) Audio ID : 1 Format : MPEG Audio Format version : Version 1 Format profile : Layer 3 Mode : Joint stereo Format_Settings_ModeExtension : MS Stereo Codec ID : 55 Codec ID/Hint : MP3 Duration : 2h 43mn Bit rate mode : Constant Bit rate : 128 Kbps Channel(s) : 2 channels Sampling rate : 44.1 KHz Stream size : 150 MiB (13%) Alignment : Split accross interleaves Interleave, duration : 40 ms (1.00 video frame) Interleave, preload duration : 500 ms Title : Audio\n\n","torrent":{"xt":"urn:btih:585c5324c9f4f4f5b354656f2cc20528f691ea81","amp;dn":"The+Thin+Red+Line+%28La+Sottile+Linea+Rossa%29+1998+ITALIAN+%28Eng-sub","amp;tr":["udp%3A%2F%2Ftracker.openbittorrent.com%3A80","udp%3A%2F%2Fopen.demonii.com%3A1337","udp%3A%2F%2Ftracker.coppersurfer.tk%3A6969","udp%3A%2F%2Fexodus.desync.com%3A6969"],"infoHash":"585c5324c9f4f4f5b354656f2cc20528f691ea81","infoHashBuffer":{"type":"Buffer","data":[88,92,83,36,201,244,244,245,179,84,101,111,44,194,5,40,246,145,234,129]},"announce":[],"urlList":[]}}